<svg xmlns="http://www.w3.org/2000/svg" viewBox="0 0 48 48"><title>calculator</title><g id="calculator"><path d="M38,0H10A4,4,0,0,0,6,4V44a4,4,0,0,0,4,4H38a4,4,0,0,0,4-4V4A4,4,0,0,0,38,0Zm2,44a2,2,0,0,1-2,2H10a2,2,0,0,1-2-2V4a2,2,0,0,1,2-2H38a2,2,0,0,1,2,2Z"/><path d="M27,35H21a1,1,0,0,0-1,1v6a1,1,0,0,0,1,1h6a1,1,0,0,0,1-1V36A1,1,0,0,0,27,35Zm-1,6H22V37h4Z"/><path d="M27,25H21a1,1,0,0,0-1,1v6a1,1,0,0,0,1,1h6a1,1,0,0,0,1-1V26A1,1,0,0,0,27,25Zm-1,6H22V27h4Z"/><path d="M17,35H11a1,1,0,0,0-1,1v6a1,1,0,0,0,1,1h6a1,1,0,0,0,1-1V36A1,1,0,0,0,17,35Zm-1,6H12V37h4Z"/><path d="M17,25H11a1,1,0,0,0-1,1v6a1,1,0,0,0,1,1h6a1,1,0,0,0,1-1V26A1,1,0,0,0,17,25Zm-1,6H12V27h4Z"/><path d="M37,25H31a1,1,0,0,0-1,1V42a1,1,0,0,0,1,1h6a1,1,0,0,0,1-1V26A1,1,0,0,0,37,25ZM36,41H32V27h4Z"/><path d="M37,5H11a1,1,0,0,0-1,1V20a1,1,0,0,0,1,1H37a1,1,0,0,0,1-1V6A1,1,0,0,0,37,5ZM36,19H12V7H36Z"/></g></svg>